<svg xmlns="http://www.w3.org/2000/svg" id="Layer_1" x="0" y="0" enable-background="new 0 0 256 256" version="1.1" viewBox="0 0 256 256" xml:space="preserve"><style>.st0{fill:#6DCC6D;}
	.st1{fill:#F9D0B4;}
	.st2{fill:#55ACD5;}
	.st3{fill:#E9E9EA;}
	.st4{fill:#FFCD29;}
	.st5{fill:#EA4647;}
	.st6{fill:#231F20;}</style><g id="Layer_19"><path d="M193 24.5H63c-17.5.1-31.7 14.2-31.8 31.8v130.1c.1 17.5 14.2 31.7 31.8 31.8h33.6c3.9 0 7.6 2 9.7 5.2l19 28.7c1 1.5 3.1 1.9 4.6.9.4-.2.7-.6.9-.9l19-28.7c2.2-3.3 5.8-5.2 9.7-5.2H193c17.5-.1 31.7-14.2 31.8-31.8V56.3c-.1-17.6-14.3-31.7-31.8-31.8z" class="st0"/><path d="M103.8 90H91.7v73.6h12.1c1.4 0 2.6-1.2 2.6-2.6V92.6c0-1.4-1.1-2.6-2.6-2.6zM197.5 121.1c0-4.7-3.8-8.5-8.5-8.5 4.7 0 8.5-3.8 8.5-8.5s-3.8-8.5-8.5-8.5h-25.2c4.1-12.2 10.2-22.7 8.6-31.1-1.9-9.6-13.9-12.8-15.7-3.7-1.7 8.9-15.3 25.9-15.3 25.9-4.3 4.3-4 9.2-35 9.2v61.9H122c4.2 0 8.3.7 12.3 1.9l6.5 2.1c3.6 1.2 7.4 1.8 11.2 1.8h37c4.7 0 8.5-3.8 8.5-8.5s-3.8-8.5-8.5-8.5c4.7 0 8.5-3.8 8.5-8.5s-3.8-8.5-8.5-8.5c4.7 0 8.5-3.8 8.5-8.5z" class="st1"/><path d="M61.1 84.9h28c1.4 0 2.6 1.2 2.6 2.6v79.9c0 1.4-1.2 2.6-2.6 2.6h-28c-1.4 0-2.6-1.2-2.6-2.6V87.5c0-1.4 1.1-2.6 2.6-2.6z" class="st2"/><path d="M103.8 90H91.7v73.6h12.1c1.4 0 2.6-1.2 2.6-2.6V92.6c0-1.4-1.1-2.6-2.6-2.6z" class="st3"/><path d="M197.5 121.1c0-4.7-3.8-8.5-8.5-8.5 4.7 0 8.5-3.8 8.5-8.5s-3.8-8.5-8.5-8.5h-25.2c4.1-12.2 10.2-22.7 8.6-31.1-1.9-9.6-13.9-12.8-15.7-3.7-1.7 8.9-15.3 25.9-15.3 25.9-4.3 4.3-4 9.2-35 9.2v61.9H122c4.2 0 8.3.7 12.3 1.9l6.5 2.1c3.6 1.2 7.4 1.8 11.2 1.8h37c4.7 0 8.5-3.8 8.5-8.5s-3.8-8.5-8.5-8.5c4.7 0 8.5-3.8 8.5-8.5s-3.8-8.5-8.5-8.5c4.7 0 8.5-3.8 8.5-8.5z" class="st1"/><path d="M47.3 231.5h-1.8v-1.8c0-1.4-1.1-2.5-2.5-2.5s-2.5 1.1-2.5 2.5v1.8h-1.8c-1.4 0-2.5 1.1-2.5 2.5s1.1 2.5 2.5 2.5h1.8v1.8c0 1.4 1.1 2.5 2.5 2.5s2.5-1.1 2.5-2.5v-1.8h1.8c1.4 0 2.5-1.1 2.5-2.5s-1.1-2.5-2.5-2.5z" class="st4"/><path d="M240.8 37.4c-.1-.3-.2-.6-.4-.9-.1-.1-.2-.3-.3-.4-1-.9-2.5-.9-3.5 0-.1.1-.2.2-.3.4-.1.1-.2.3-.2.4-.1.2-.1.3-.1.5-.1.3-.1.7 0 1 0 .2.1.3.1.5.1.1.1.3.2.4.1.1.2.3.3.4 1 1 2.5 1 3.5 0 .1-.1.2-.2.3-.4.1-.1.2-.3.2-.4.1-.1.1-.3.1-.5.2-.3.2-.6.1-1z" class="st0"/><path d="M68.5 253c-.1-.3-.2-.6-.4-.9-.1-.1-.2-.3-.3-.4-1-.9-2.5-.9-3.5 0-.1.1-.2.2-.3.4-.1.1-.2.3-.2.4-.1.2-.1.3-.1.5-.1.3-.1.7 0 1 0 .2.1.3.1.5.1.1.1.3.2.4.1.1.2.3.3.4 1 1 2.5 1 3.5 0 .1-.1.2-.2.3-.4.1-.1.2-.3.2-.4.1-.1.1-.3.1-.5.2-.3.2-.7.1-1z" class="st5"/><path d="M227.8 8.2c-4.1-.8-7.2-4-8-8 0-.1-.1-.2-.2-.2s-.1.1-.2.2c-.8 4.1-4 7.2-8 8-.1 0-.2.1-.2.2s.1.1.2.2c4.1.8 7.2 4 8 8 0 .1.1.2.2.2s.1-.1.2-.2c.8-4.1 4-7.2 8-8 .1 0 .2-.1.2-.2-.1-.2-.1-.2-.2-.2z" class="st2"/><path d="M103.8 87.5H91.7c-1.4 0-2.5 1.1-2.5 2.5v73.6c0 1.4 1.1 2.5 2.5 2.5h12.1c2.8 0 5.1-2.3 5.1-5.1V92.6c0-2.8-2.3-5.1-5.1-5.1zm.1 73.5c0 .1-.1.1-.1.1h-9.6V92.5h9.6c.1 0 .1.1.1.1V161z" class="st6"/><path d="M200 121.1c0-3.3-1.5-6.4-4-8.5 4.7-3.9 5.4-10.8 1.5-15.5-2.1-2.5-5.2-4-8.5-4h-21.7c.8-2.2 1.6-4.3 2.5-6.4 3.4-8.5 6.3-15.9 5-22.7-1.4-7.2-7.3-11.2-12.2-11.2-4.3 0-7.5 2.8-8.4 7.4-1.3 6.8-11 20-14.7 24.7-.6.6-1 1.1-1.5 1.7-2.8 3.3-5.7 6.7-31.6 6.7-1.4 0-2.5 1.1-2.5 2.5v61.9c0 1.4 1.1 2.5 2.5 2.5H122c3.9 0 7.8.6 11.5 1.8l6.5 2.1c3.9 1.2 7.9 1.9 12 1.9h37c6.1 0 11-4.9 11-11 0-3.3-1.5-6.4-4-8.5 4.7-3.8 5.4-10.8 1.5-15.5-.5-.6-1-1.1-1.5-1.5 2.6-2 4-5.1 4-8.4zm-11-6c3.3 0 6 2.7 6 6s-2.7 6-6 6c-1.4 0-2.5 1.1-2.5 2.5s1.1 2.5 2.5 2.5c3.3 0 6 2.7 6 6s-2.7 6-6 6c-1.4 0-2.5 1.1-2.5 2.5s1.1 2.5 2.5 2.5c3.3 0 6 2.7 6 6s-2.7 6-6 6h-37c-3.5 0-7.1-.6-10.4-1.6l-6.5-2.1c-4.2-1.4-8.6-2.1-13.1-2.1h-13.1V98.4c24.1-.2 28.7-3.5 32.9-8.4.4-.5.9-1 1.3-1.5l.2-.2c.6-.7 14-17.6 15.8-27 .4-2.2 1.6-3.4 3.5-3.4 2.9 0 6.4 2.7 7.3 7.1 1 5.3-1.6 12.1-4.8 19.9-1.3 3.2-2.6 6.4-3.7 9.9-.4 1.3.3 2.7 1.6 3.2.3.1.5.1.8.1H189c3.3 0 6 2.7 6 6s-2.7 6-6 6c-1.4 0-2.5 1.1-2.5 2.5s1.2 2.5 2.5 2.5zM89.1 82.4h-28c-2.8 0-5.1 2.3-5.1 5.1v79.9c0 2.8 2.3 5.1 5.1 5.1h28c2.8 0 5.1-2.3 5.1-5.1V87.5c0-2.8-2.3-5.1-5.1-5.1zm.1 85c0 .1-.1.1-.1.1h-28c-.1 0-.1-.1-.1-.1V87.5c0-.1.1-.1.1-.1h28c.1 0 .1.1.1.1v79.9z" class="st6"/><path d="M103.8 87.5H91.7c-1.4 0-2.5 1.1-2.5 2.5v73.6c0 1.4 1.1 2.5 2.5 2.5h12.1c2.8 0 5.1-2.3 5.1-5.1V92.6c0-2.8-2.3-5.1-5.1-5.1zm.1 73.5c0 .1-.1.1-.1.1h-9.6V92.5h9.6c.1 0 .1.1.1.1V161z" class="st6"/><path d="M200 121.1c0-3.3-1.5-6.4-4-8.5 4.7-3.9 5.4-10.8 1.5-15.5-2.1-2.5-5.2-4-8.5-4h-21.7c.8-2.2 1.6-4.3 2.5-6.4 3.4-8.5 6.3-15.9 5-22.7-1.4-7.2-7.3-11.2-12.2-11.2-4.3 0-7.5 2.8-8.4 7.4-1.3 6.8-11 20-14.7 24.7-.6.6-1 1.1-1.5 1.7-2.8 3.3-5.7 6.7-31.6 6.7-1.4 0-2.5 1.1-2.5 2.5v61.9c0 1.4 1.1 2.5 2.5 2.5H122c3.9 0 7.8.6 11.5 1.8l6.5 2.1c3.9 1.2 7.9 1.9 12 1.9h37c6.1 0 11-4.9 11-11 0-3.3-1.5-6.4-4-8.5 4.7-3.8 5.4-10.8 1.5-15.5-.5-.6-1-1.1-1.5-1.5 2.6-2 4-5.1 4-8.4zm-11-6c3.3 0 6 2.7 6 6s-2.7 6-6 6c-1.4 0-2.5 1.1-2.5 2.5s1.1 2.5 2.5 2.5c3.3 0 6 2.7 6 6s-2.7 6-6 6c-1.4 0-2.5 1.1-2.5 2.5s1.1 2.5 2.5 2.5c3.3 0 6 2.7 6 6s-2.7 6-6 6h-37c-3.5 0-7.1-.6-10.4-1.6l-6.5-2.1c-4.2-1.4-8.6-2.1-13.1-2.1h-13.1V98.4c24.1-.2 28.7-3.5 32.9-8.4.4-.5.9-1 1.3-1.5l.2-.2c.6-.7 14-17.6 15.8-27 .4-2.2 1.6-3.4 3.5-3.4 2.9 0 6.4 2.7 7.3 7.1 1 5.3-1.6 12.1-4.8 19.9-1.3 3.2-2.6 6.4-3.7 9.9-.4 1.3.3 2.7 1.6 3.2.3.1.5.1.8.1H189c3.3 0 6 2.7 6 6s-2.7 6-6 6c-1.4 0-2.5 1.1-2.5 2.5s1.2 2.5 2.5 2.5z" class="st6"/><path d="M166.3 95.2c-.2-1.4-1.5-2.3-2.9-2-1.4.2-2.3 1.5-2 2.9.1.7 2.4 16.3-17.1 26-1.2.6-1.7 2.1-1.1 3.4s2.1 1.7 3.4 1.1c22.8-11.5 19.7-31.2 19.7-31.4z" class="st6"/><path d="M189 93.1h-16.6c-6.1 0-11 4.9-11 11s4.9 11 11 11H189c6.1 0 11-4.9 11-11s-4.9-11-11-11zm0 17h-16.6c-3.3 0-6-2.7-6-6s2.7-6 6-6H189c3.3 0 6 2.7 6 6s-2.6 6-6 6z" class="st6"/><path d="M189 110.1h-16.6c-6.1 0-11 4.9-11 11s4.9 11 11 11H189c6.1 0 11-4.9 11-11s-4.9-11-11-11zm0 17h-16.6c-3.3 0-6-2.7-6-6s2.7-6 6-6H189c3.3 0 6 2.7 6 6s-2.6 6-6 6z" class="st6"/><path d="M189 127.1h-16.6c-6.1 0-11 4.9-11 11s4.9 11 11 11H189c6.1 0 11-4.9 11-11s-4.9-11-11-11zm0 17h-16.6c-3.3 0-6-2.7-6-6s2.7-6 6-6H189c3.3 0 6 2.7 6 6s-2.6 6-6 6z" class="st6"/><path d="M189 144.1h-16.6c-6.1 0-11 4.9-11 11s4.9 11 11 11H189c6.1 0 11-4.9 11-11s-4.9-11-11-11zm0 17h-16.6c-3.3 0-6-2.7-6-6s2.7-6 6-6H189c3.3 0 6 2.7 6 6s-2.6 6-6 6z" class="st6"/><path d="M193 22H63c-18.9 0-34.2 15.3-34.3 34.3v130.1c0 18.9 15.3 34.2 34.3 34.2h33.6c3.1 0 5.9 1.5 7.6 4.1l19 28.7c1.1 1.6 2.9 2.6 4.8 2.6s3.8-1 4.8-2.6l19-28.7a9.1 9.1 0 0 1 7.6-4.1H193c18.9 0 34.2-15.3 34.3-34.3v-130c0-19-15.4-34.3-34.3-34.3zm29.3 164.3c0 16.1-13.1 29.2-29.3 29.3h-33.6c-4.8 0-9.2 2.4-11.8 6.4l-19 28.7c-.2.4-.7.5-1.1.2-.1-.1-.2-.1-.2-.2l-19-28.7c-2.6-4-7-6.4-11.8-6.3H63c-16.1 0-29.2-13.1-29.3-29.2V56.3C33.7 40.1 46.8 27 63 27h130c16.1 0 29.2 13.1 29.3 29.2v130.1z" class="st6"/></g></svg>